<svg xmlns="http://www.w3.org/2000/svg" viewBox="0 0 24 24" fill="none">
  <path d="M12 2a10 10 0 0 0-3.16 19.49c.5.09.68-.21.68-.48v-1.86c-2.77.6-3.35-1.17-3.35-1.17-.45-1.14-1.1-1.45-1.1-1.45-.9-.62.07-.61.07-.61 1 .07 1.53 1.02 1.53 1.02.88 1.52 2.32 1.08 2.89.83.09-.65.35-1.08.63-1.33-2.21-.25-4.53-1.11-4.53-4.93 0-1.09.39-1.98 1.02-2.68-.1-.25-.44-1.27.1-2.64 0 0 .84-.27 2.75 1.02A9.54 9.54 0 0 1 12 6.84c.85 0 1.71.11 2.52.33 1.91-1.29 2.75-1.02 2.75-1.02.54 1.37.2 2.39.1 2.64.64.7 1.02 1.59 1.02 2.68 0 3.83-2.32 4.67-4.54 4.92.36.31.68.92.68 1.86v2.76c0 .27.18.58.69.48A10 10 0 0 0 12 2Z" fill="#0f172a"/>
</svg>
