<svg xmlns="http://www.w3.org/2000/svg" viewBox="0 0 24 24" fill="none">
  <path d="M21.6 12.23c0-.74-.07-1.45-.2-2.13H12v4.04h5.38a4.6 4.6 0 0 1-1.99 3.03v2.52h3.23c1.89-1.74 2.98-4.31 2.98-7.46Z" fill="#4285F4"/>
  <path d="M12 22c2.7 0 4.96-.89 6.61-2.31l-3.23-2.52c-.9.6-2.04.96-3.38.96-2.6 0-4.81-1.76-5.6-4.12H3.07v2.6A9.99 9.99 0 0 0 12 22Z" fill="#34A853"/>
  <path d="M6.4 14.01a5.99 5.99 0 0 1 0-3.82V7.59H3.07a10 10 0 0 0 0 8.99l3.33-2.57Z" fill="#FBBC05"/>
  <path d="M12 5.87c1.47 0 2.78.5 3.81 1.49l2.85-2.85A9.98 9.98 0 0 0 12 2a9.99 9.99 0 0 0-8.93 5.59l3.33 2.6c.79-2.37 3-4.12 5.6-4.12Z" fill="#EA4335"/>
</svg>
